<svg xmlns="http://www.w3.org/2000/svg" viewBox="0 0 200 40" width="200" height="40">
  <path d="M12 4 C8 10, 4 18, 6 26 C8 34, 14 38, 20 36 C26 34, 28 26, 26 18 C24 10, 18 4, 12 4 Z" fill="#00e87b"/>
  <path d="M12 14 C10 18, 9 22, 11 26 C13 30, 17 32, 20 30 C23 28, 24 24, 22 20 C20 16, 16 12, 12 14 Z" fill="#000000"/>
  <line x1="38" y1="8" x2="38" y2="32" stroke="#444" stroke-width="1"/>
  <text x="46" y="27" font-family="'Helvetica Neue', Helvetica, Arial, sans-serif" font-size="20" font-weight="600" fill="#00e87b" letter-spacing="-0.5">Liana</text>
  <text x="108" y="27" font-family="'Helvetica Neue', Helvetica, Arial, sans-serif" font-size="20" font-weight="400" fill="#ffffff" letter-spacing="-0.5">Wallet</text>
</svg>
