<!-- Handshake icon - f3.png equivalent -->
<svg xmlns="http://www.w3.org/2000/svg" viewBox="0 0 120 120" width="120" height="120">
  <circle cx="60" cy="60" r="58" fill="#1a5c3a" opacity="0.3"/>
  <circle cx="60" cy="60" r="48" fill="#22883a" opacity="0.4"/>
  <circle cx="60" cy="60" r="40" fill="#aaf0c0" opacity="0.7"/>
  <!-- Handshake -->
  <path d="M20 60 Q30 50 40 55 L55 50 Q65 45 72 50 L85 45 Q95 42 100 48 L100 58 Q90 55 80 58 L65 62 Q55 66 45 62 L30 66 Q20 68 20 60Z" fill="#1a5c3a"/>
  <path d="M20 60 Q30 70 40 65 L55 70 Q65 75 72 70 L85 75 Q95 78 100 72 L100 62 Q90 65 80 62 L65 58 Q55 54 45 58 L30 54 Q20 52 20 60Z" fill="#1a5c3a" opacity="0.6"/>
</svg>
