<!-- Service image 2 - happy family -->
<svg xmlns="http://www.w3.org/2000/svg" viewBox="0 0 400 300" width="400" height="300">
  <defs>
    <linearGradient id="bg2" x1="0%" y1="0%" x2="100%" y2="100%">
      <stop offset="0%" style="stop-color:#3a3020;stop-opacity:1" />
      <stop offset="100%" style="stop-color:#2a2010;stop-opacity:1" />
    </linearGradient>
  </defs>
  <rect width="400" height="300" fill="url(#bg2)"/>
  <!-- Parent 1 -->
  <circle cx="140" cy="95" r="30" fill="#c8a878"/>
  <ellipse cx="140" cy="80" rx="32" ry="22" fill="#2a1a05"/>
  <path d="M90 200 Q110 155 140 150 Q170 155 190 200 L190 300 L90 300Z" fill="#4a5a3a"/>
  <!-- Parent 2 -->
  <circle cx="260" cy="95" r="30" fill="#b09070"/>
  <ellipse cx="260" cy="78" rx="32" ry="18" fill="#3a2a10"/>
  <path d="M210 200 Q230 155 260 150 Q290 155 310 200 L310 300 L210 300Z" fill="#3a4a5a"/>
  <!-- Child -->
  <circle cx="200" cy="130" r="22" fill="#d4b090"/>
  <ellipse cx="200" cy="118" rx="24" ry="14" fill="#8a5a20"/>
  <path d="M168 230 Q183 190 200 185 Q217 190 232 230 L232 300 L168 300Z" fill="#5a4a3a"/>
  <!-- Background elements -->
  <rect x="0" y="240" width="400" height="60" fill="#2a2010" opacity="0.5"/>
  <text x="200" y="275" font-family="Arial" font-size="13" fill="#00e87b" text-anchor="middle" opacity="0.7">Family Shared Access</text>
</svg>
