<!-- Service image 3 - business people -->
<svg xmlns="http://www.w3.org/2000/svg" viewBox="0 0 400 300" width="400" height="300">
  <defs>
    <linearGradient id="bg3" x1="0%" y1="0%" x2="100%" y2="100%">
      <stop offset="0%" style="stop-color:#20303a;stop-opacity:1" />
      <stop offset="100%" style="stop-color:#10202a;stop-opacity:1" />
    </linearGradient>
  </defs>
  <rect width="400" height="300" fill="url(#bg3)"/>
  <!-- Tablet device -->
  <rect x="140" y="80" width="120" height="150" rx="8" fill="#1a1a1a"/>
  <rect x="148" y="88" width="104" height="130" rx="4" fill="#0d2a1a"/>
  <!-- Screen content -->
  <text x="200" y="112" font-family="Arial" font-size="10" fill="#00e87b" text-anchor="middle">Portfolio</text>
  <text x="200" y="132" font-family="Arial" font-size="16" font-weight="bold" fill="#fff" text-anchor="middle">₿ 2.847</text>
  <text x="200" y="150" font-family="Arial" font-size="9" fill="#888" text-anchor="middle">+12.4% this month</text>
  <rect x="158" y="160" width="84" height="4" rx="2" fill="#00e87b" opacity="0.6"/>
  <rect x="158" y="172" width="60" height="4" rx="2" fill="#333"/>
  <rect x="158" y="184" width="74" height="4" rx="2" fill="#333"/>
  <!-- Person 1 -->
  <circle cx="110" cy="100" r="28" fill="#a08060"/>
  <ellipse cx="110" cy="86" rx="30" ry="18" fill="#3a2a10"/>
  <path d="M65 200 Q82 158 110 152 Q138 158 155 200 L155 300 L65 300Z" fill="#2a4a5a"/>
  <!-- Person 2 -->
  <circle cx="290" cy="100" r="28" fill="#b09070"/>
  <ellipse cx="290" cy="85" rx="30" ry="16" fill="#1a0a00"/>
  <path d="M245 200 Q262 158 290 152 Q318 158 335 200 L335 300 L245 300Z" fill="#3a3a4a"/>
  <!-- Background elements -->
  <rect x="0" y="240" width="400" height="60" fill="#10202a" opacity="0.5"/>
  <text x="200" y="275" font-family="Arial" font-size="13" fill="#00e87b" text-anchor="middle" opacity="0.7">Business Treasury</text>
</svg>
